<?xml version="1.0" encoding="UTF-8" standalone="no"?><!DOCTYPE svg PUBLIC "-//W3C//DTD SVG 1.1//EN" "http://www.w3.org/Graphics/SVG/1.1/DTD/svg11.dtd"><svg width="100%" height="100%" viewBox="0 0 185 83" version="1.1" xmlns="http://www.w3.org/2000/svg" xmlns:xlink="http://www.w3.org/1999/xlink" xml:space="preserve" xmlns:serif="http://www.serif.com/" style="fill-rule:evenodd;clip-rule:evenodd;stroke-linecap:round;stroke-linejoin:round;stroke-miterlimit:1.5;"><rect id="Artboard1" x="0" y="0" width="184.144" height="82.367" style="fill:none;"/><text x="77.662px" y="44.908px" style="font-family:'Tahoma', sans-serif;font-size:15.883px;fill:#47008f;">Ruggier</text><g transform="matrix(19.188744,0,0,19.188744,191.142349,62.767642)"></g><text x="77.425px" y="62.768px" style="font-family:'Tahoma', sans-serif;font-size:19.189px;fill:#676767;">Chromatico</text><g><path d="M18.901,21.931c0,0 -0.612,5.049 4.492,5.042c5.104,-0.006 25.861,-1.572 30.42,17.824c0,0 3.513,-5.094 -1.089,-15.191c-4.56,-10.004 -6.669,-11.093 -7.01,-10.957c-0.34,0.136 -0.483,2.035 -0.483,2.035c-0.767,-0.511 -1.361,-0.935 -5.29,-1.637c-6.907,-1.233 -18.221,-1.705 -21.04,2.883Z" style="fill:#433489;"/><path d="M54.223,44.55c0,0 -0.769,-9.543 -1.971,-13.633c-1.23,-4.187 -6.224,-12.081 -6.224,-12.081c0,0 8.398,4.718 11.413,10.659c2.175,4.285 1.979,10.171 -3.218,15.055Z" style="fill:#5643b1;"/><path d="M19.287,22.116c0,0 -0.51,-2.876 5.637,-3.656c12.685,-1.611 20.341,2.137 20.341,2.137c0,0 -0.13,-1.589 0.456,-2.137c0.585,-0.548 22.356,13.085 8.39,26.337" style="fill:none;stroke:#fff;stroke-width:0.8px;"/><path d="M60.667,28.649c0,0 2.478,-10.039 -2.081,-8.92c-4.559,1.119 2.081,8.92 2.081,8.92Z" style="fill:#5643b1;stroke:#fff;stroke-width:0.8px;"/></g><g><path d="M68.393,69.493c0,0 0.612,-5.049 -4.492,-5.042c-5.104,0.007 -25.86,1.575 -30.423,-17.819c0,0 -3.512,5.095 1.091,15.191c4.561,10.003 6.671,11.092 7.011,10.956c0.34,-0.136 0.483,-2.035 0.483,-2.035c0.767,0.511 1.361,0.935 5.291,1.636c6.908,1.232 18.221,1.703 21.04,-2.886Z" style="fill:#433489;"/><path d="M33.067,46.879c0,0 0.771,9.543 1.973,13.633c1.23,4.187 6.226,12.08 6.226,12.08c0,0 -8.398,-4.717 -11.415,-10.658c-2.176,-4.284 -1.981,-10.171 3.216,-15.055Z" style="fill:#5643b1;"/><path d="M68.007,69.308c0,0 0.51,2.876 -5.636,3.657c-12.685,1.613 -20.342,-2.134 -20.342,-2.134c0,0 0.13,1.589 -0.455,2.137c-0.585,0.548 -22.358,-13.081 -8.394,-26.336" style="fill:none;stroke:#fff;stroke-width:0.8px;"/><path d="M26.626,62.782c0,0 -2.476,10.039 2.083,8.92c4.559,-1.119 -2.083,-8.92 -2.083,-8.92Z" style="fill:#5643b1;stroke:#fff;stroke-width:0.8px;"/></g><g><path d="M18.138,71.082c0,0 5.047,0.625 5.053,-4.479c0.006,-5.104 -1.509,-25.864 17.897,-30.377c0,0 -5.086,-3.525 -15.194,1.052c-10.015,4.536 -11.109,6.643 -10.974,6.983c0.135,0.341 2.034,0.488 2.034,0.488c-0.513,0.765 -0.939,1.359 -1.649,5.286c-1.249,6.904 -1.749,18.216 2.832,21.047Z" style="fill:#433489;"/><path d="M40.842,35.815c0,0 -9.544,0.747 -13.638,1.938c-4.19,1.22 -12.096,6.195 -12.096,6.195c0,0 4.738,-8.386 10.687,-11.388c4.29,-2.165 10.176,-1.955 15.047,3.254Z" style="fill:#5643b1;"/><path d="M18.324,70.697c0,0 -2.877,0.503 -3.643,-5.645c-1.58,-12.689 2.186,-20.336 2.186,-20.336c0,0 -1.589,0.126 -2.136,-0.461c-0.547,-0.587 13.138,-22.324 26.357,-8.327" style="fill:none;stroke:#fff;stroke-width:0.8px;"/><path d="M24.956,29.333c0,0 -10.033,-2.502 -8.925,2.06c1.108,4.562 8.925,-2.06 8.925,-2.06Z" style="fill:#5643b1;stroke:#fff;stroke-width:0.8px;"/></g><g><path d="M68.675,19.665c0,0 -5.048,-0.616 -5.045,4.488c0.003,5.104 1.554,25.862 -17.844,30.408c0,0 5.092,3.517 15.192,-1.079c10.007,-4.553 11.097,-6.662 10.961,-7.002c-0.136,-0.34 -2.035,-0.484 -2.035,-0.484c0.512,-0.766 0.936,-1.36 1.64,-5.289c1.237,-6.906 1.718,-18.219 -2.869,-21.042Z" style="fill:#433489;"/><path d="M46.032,54.971c0,0 9.543,-0.763 13.635,-1.962c4.188,-1.227 12.085,-6.216 12.085,-6.216c0,0 -4.724,8.394 -10.667,11.406c-4.286,2.172 -10.172,1.972 -15.053,-3.228Z" style="fill:#5643b1;"/><path d="M68.49,20.051c0,0 2.876,-0.508 3.652,5.639c1.602,12.686 -2.151,20.34 -2.151,20.34c0,0 1.589,-0.129 2.137,0.457c0.548,0.586 -13.1,22.347 -26.343,8.373" style="fill:none;stroke:#fff;stroke-width:0.8px;"/><path d="M61.93,61.426c0,0 10.037,2.485 8.921,-2.075c-1.115,-4.56 -8.921,2.075 -8.921,2.075Z" style="fill:#5643b1;stroke:#fff;stroke-width:0.8px;"/></g><ellipse cx="43.685" cy="45.603" rx="6.501" ry="6.612" style="fill:none;stroke:#fff;stroke-width:0.8px;"/></svg>